<mxfile host="app.diagrams.net" agent="Mozilla/5.0 (Windows NT 10.0; Win64; x64) AppleWebKit/537.36 (KHTML, like Gecko) Chrome/141.0.0.0 Safari/537.36 Edg/141.0.0.0" version="28.2.8">
  <diagram name="Page-1" id="3ko4D0awMjVaXnexq7fm">
    <mxGraphModel grid="1" page="1" gridSize="10" guides="1" tooltips="1" connect="1" arrows="1" fold="1" pageScale="1" pageWidth="850" pageHeight="1100" math="0" shadow="0">
      <root>
        <mxCell id="0" />
        <mxCell id="1" parent="0" />
        <mxCell id="zpxudrFcBU-MMzCYJGep-2" style="edgeStyle=none;curved=1;rounded=0;orthogonalLoop=1;jettySize=auto;html=1;entryX=0;entryY=0.5;entryDx=0;entryDy=0;fontSize=12;startSize=8;endSize=8;endArrow=none;endFill=0;exitX=0.5;exitY=0.5;exitDx=0;exitDy=0;exitPerimeter=0;" edge="1" parent="1" source="ZmAE418go0qRpAvOEASp-1" target="zpxudrFcBU-MMzCYJGep-1">
          <mxGeometry relative="1" as="geometry">
            <mxPoint x="105" y="290" as="sourcePoint" />
          </mxGeometry>
        </mxCell>
        <mxCell id="zpxudrFcBU-MMzCYJGep-6" style="edgeStyle=none;curved=1;rounded=0;orthogonalLoop=1;jettySize=auto;html=1;entryX=0;entryY=0.5;entryDx=0;entryDy=0;fontSize=12;startSize=8;endSize=8;endArrow=none;endFill=0;exitX=0.5;exitY=0.5;exitDx=0;exitDy=0;exitPerimeter=0;" edge="1" parent="1" source="ZmAE418go0qRpAvOEASp-1" target="zpxudrFcBU-MMzCYJGep-8">
          <mxGeometry relative="1" as="geometry">
            <mxPoint x="290" y="280" as="targetPoint" />
          </mxGeometry>
        </mxCell>
        <mxCell id="zpxudrFcBU-MMzCYJGep-12" style="edgeStyle=none;curved=1;rounded=0;orthogonalLoop=1;jettySize=auto;html=1;entryX=0;entryY=0.5;entryDx=0;entryDy=0;fontSize=12;startSize=8;endSize=8;endArrow=none;endFill=0;exitX=0.5;exitY=0.5;exitDx=0;exitDy=0;exitPerimeter=0;" edge="1" parent="1" source="ZmAE418go0qRpAvOEASp-1" target="zpxudrFcBU-MMzCYJGep-9">
          <mxGeometry relative="1" as="geometry" />
        </mxCell>
        <mxCell id="zpxudrFcBU-MMzCYJGep-16" style="edgeStyle=none;curved=1;rounded=0;orthogonalLoop=1;jettySize=auto;html=1;exitX=0.5;exitY=0.5;exitDx=0;exitDy=0;exitPerimeter=0;entryX=0;entryY=0.5;entryDx=0;entryDy=0;fontSize=12;startSize=8;endSize=8;endArrow=none;endFill=0;" edge="1" parent="1" source="ZmAE418go0qRpAvOEASp-1" target="zpxudrFcBU-MMzCYJGep-10">
          <mxGeometry relative="1" as="geometry" />
        </mxCell>
        <mxCell id="zpxudrFcBU-MMzCYJGep-18" style="edgeStyle=none;curved=1;rounded=0;orthogonalLoop=1;jettySize=auto;html=1;exitX=0.5;exitY=0.5;exitDx=0;exitDy=0;exitPerimeter=0;entryX=0;entryY=0.5;entryDx=0;entryDy=0;fontSize=12;startSize=8;endSize=8;endArrow=none;endFill=0;" edge="1" parent="1" source="ZmAE418go0qRpAvOEASp-1" target="zpxudrFcBU-MMzCYJGep-15">
          <mxGeometry relative="1" as="geometry" />
        </mxCell>
        <mxCell id="zpxudrFcBU-MMzCYJGep-32" style="edgeStyle=none;curved=1;rounded=0;orthogonalLoop=1;jettySize=auto;html=1;exitX=0.5;exitY=0.5;exitDx=0;exitDy=0;exitPerimeter=0;entryX=0;entryY=0.5;entryDx=0;entryDy=0;fontSize=12;startSize=8;endSize=8;endArrow=none;endFill=0;" edge="1" parent="1" source="ZmAE418go0qRpAvOEASp-1" target="zpxudrFcBU-MMzCYJGep-28">
          <mxGeometry relative="1" as="geometry" />
        </mxCell>
        <mxCell id="ZmAE418go0qRpAvOEASp-1" value="Student" style="shape=umlActor;verticalLabelPosition=bottom;verticalAlign=top;html=1;outlineConnect=0;" vertex="1" parent="1">
          <mxGeometry x="90" y="260" width="30" height="60" as="geometry" />
        </mxCell>
        <mxCell id="zpxudrFcBU-MMzCYJGep-19" style="edgeStyle=none;curved=1;rounded=0;orthogonalLoop=1;jettySize=auto;html=1;exitX=0.5;exitY=0.5;exitDx=0;exitDy=0;exitPerimeter=0;entryX=0;entryY=0.5;entryDx=0;entryDy=0;fontSize=12;startSize=8;endSize=8;endArrow=none;endFill=0;" edge="1" parent="1" source="ZmAE418go0qRpAvOEASp-2" target="zpxudrFcBU-MMzCYJGep-15">
          <mxGeometry relative="1" as="geometry" />
        </mxCell>
        <mxCell id="zpxudrFcBU-MMzCYJGep-30" style="edgeStyle=none;curved=1;rounded=0;orthogonalLoop=1;jettySize=auto;html=1;exitX=0.5;exitY=0.5;exitDx=0;exitDy=0;exitPerimeter=0;entryX=0;entryY=0.5;entryDx=0;entryDy=0;fontSize=12;startSize=8;endSize=8;endArrow=none;endFill=0;" edge="1" parent="1" source="ZmAE418go0qRpAvOEASp-2" target="zpxudrFcBU-MMzCYJGep-28">
          <mxGeometry relative="1" as="geometry" />
        </mxCell>
        <mxCell id="zpxudrFcBU-MMzCYJGep-34" style="edgeStyle=none;curved=1;rounded=0;orthogonalLoop=1;jettySize=auto;html=1;exitX=0.5;exitY=0.5;exitDx=0;exitDy=0;exitPerimeter=0;entryX=0;entryY=0.5;entryDx=0;entryDy=0;fontSize=12;startSize=8;endSize=8;endArrow=none;endFill=0;" edge="1" parent="1" source="ZmAE418go0qRpAvOEASp-2" target="zpxudrFcBU-MMzCYJGep-26">
          <mxGeometry relative="1" as="geometry" />
        </mxCell>
        <mxCell id="zpxudrFcBU-MMzCYJGep-35" style="edgeStyle=none;curved=1;rounded=0;orthogonalLoop=1;jettySize=auto;html=1;exitX=0.5;exitY=0.5;exitDx=0;exitDy=0;exitPerimeter=0;entryX=0;entryY=0.5;entryDx=0;entryDy=0;fontSize=12;startSize=8;endSize=8;endArrow=none;endFill=0;" edge="1" parent="1" source="ZmAE418go0qRpAvOEASp-2" target="zpxudrFcBU-MMzCYJGep-27">
          <mxGeometry relative="1" as="geometry" />
        </mxCell>
        <mxCell id="zpxudrFcBU-MMzCYJGep-36" style="edgeStyle=none;curved=1;rounded=0;orthogonalLoop=1;jettySize=auto;html=1;exitX=0.5;exitY=0.5;exitDx=0;exitDy=0;exitPerimeter=0;entryX=0;entryY=0.5;entryDx=0;entryDy=0;fontSize=12;startSize=8;endSize=8;endArrow=none;endFill=0;" edge="1" parent="1" source="ZmAE418go0qRpAvOEASp-2" target="zpxudrFcBU-MMzCYJGep-29">
          <mxGeometry relative="1" as="geometry" />
        </mxCell>
        <mxCell id="ZmAE418go0qRpAvOEASp-2" value="Administrator" style="shape=umlActor;verticalLabelPosition=bottom;verticalAlign=top;html=1;outlineConnect=0;" vertex="1" parent="1">
          <mxGeometry x="90" y="710" width="30" height="60" as="geometry" />
        </mxCell>
        <mxCell id="zpxudrFcBU-MMzCYJGep-1" value="Receive Notifications" style="ellipse;whiteSpace=wrap;html=1;" vertex="1" parent="1">
          <mxGeometry x="282.5" y="60" width="157.5" height="80" as="geometry" />
        </mxCell>
        <mxCell id="zpxudrFcBU-MMzCYJGep-8" value="Make Payment" style="ellipse;whiteSpace=wrap;html=1;" vertex="1" parent="1">
          <mxGeometry x="282.5" y="170" width="157.5" height="80" as="geometry" />
        </mxCell>
        <mxCell id="zpxudrFcBU-MMzCYJGep-9" value="View Student Profile" style="ellipse;whiteSpace=wrap;html=1;" vertex="1" parent="1">
          <mxGeometry x="282.5" y="270" width="157.5" height="80" as="geometry" />
        </mxCell>
        <mxCell id="zpxudrFcBU-MMzCYJGep-10" value="View Financial Information" style="ellipse;whiteSpace=wrap;html=1;" vertex="1" parent="1">
          <mxGeometry x="282.5" y="380" width="157.5" height="80" as="geometry" />
        </mxCell>
        <mxCell id="zpxudrFcBU-MMzCYJGep-15" value="Login" style="ellipse;whiteSpace=wrap;html=1;" vertex="1" parent="1">
          <mxGeometry x="230" y="540" width="157.5" height="80" as="geometry" />
        </mxCell>
        <mxCell id="zpxudrFcBU-MMzCYJGep-22" style="edgeStyle=none;curved=1;rounded=0;orthogonalLoop=1;jettySize=auto;html=1;entryX=1;entryY=0.5;entryDx=0;entryDy=0;fontSize=12;startSize=8;endSize=8;dashed=1;endArrow=open;endFill=0;" edge="1" parent="1" source="zpxudrFcBU-MMzCYJGep-20" target="zpxudrFcBU-MMzCYJGep-15">
          <mxGeometry relative="1" as="geometry" />
        </mxCell>
        <mxCell id="zpxudrFcBU-MMzCYJGep-20" value="Password Recovery" style="ellipse;whiteSpace=wrap;html=1;" vertex="1" parent="1">
          <mxGeometry x="560" y="530" width="157.5" height="80" as="geometry" />
        </mxCell>
        <mxCell id="zpxudrFcBU-MMzCYJGep-23" style="edgeStyle=none;curved=1;rounded=0;orthogonalLoop=1;jettySize=auto;html=1;entryX=1;entryY=0.5;entryDx=0;entryDy=0;fontSize=12;startSize=8;endSize=8;dashed=1;endArrow=open;endFill=0;" edge="1" parent="1" source="zpxudrFcBU-MMzCYJGep-21" target="zpxudrFcBU-MMzCYJGep-15">
          <mxGeometry relative="1" as="geometry" />
        </mxCell>
        <mxCell id="zpxudrFcBU-MMzCYJGep-21" value="Update Password" style="ellipse;whiteSpace=wrap;html=1;" vertex="1" parent="1">
          <mxGeometry x="560" y="650" width="157.5" height="80" as="geometry" />
        </mxCell>
        <mxCell id="zpxudrFcBU-MMzCYJGep-24" value="&amp;lt;&amp;lt;Extend&amp;gt;&amp;gt;" style="text;html=1;whiteSpace=wrap;strokeColor=none;fillColor=none;align=center;verticalAlign=middle;rounded=0;rotation=0;" vertex="1" parent="1">
          <mxGeometry x="490" y="550" width="60" height="30" as="geometry" />
        </mxCell>
        <mxCell id="zpxudrFcBU-MMzCYJGep-25" value="&amp;lt;&amp;lt;Extend&amp;gt;&amp;gt;" style="text;html=1;whiteSpace=wrap;strokeColor=none;fillColor=none;align=center;verticalAlign=middle;rounded=0;rotation=30;" vertex="1" parent="1">
          <mxGeometry x="480.00108077346226" y="609.9959936115587" width="60" height="30" as="geometry" />
        </mxCell>
        <mxCell id="zpxudrFcBU-MMzCYJGep-26" value="Student Registration" style="ellipse;whiteSpace=wrap;html=1;" vertex="1" parent="1">
          <mxGeometry x="230" y="690" width="157.5" height="80" as="geometry" />
        </mxCell>
        <mxCell id="zpxudrFcBU-MMzCYJGep-27" value="Manage Database Tables" style="ellipse;whiteSpace=wrap;html=1;" vertex="1" parent="1">
          <mxGeometry x="230" y="920" width="157.5" height="80" as="geometry" />
        </mxCell>
        <mxCell id="zpxudrFcBU-MMzCYJGep-28" value="Update Student Profile" style="ellipse;whiteSpace=wrap;html=1;" vertex="1" parent="1">
          <mxGeometry x="550" y="380" width="157.5" height="80" as="geometry" />
        </mxCell>
        <mxCell id="zpxudrFcBU-MMzCYJGep-29" value="Post Announcements" style="ellipse;whiteSpace=wrap;html=1;" vertex="1" parent="1">
          <mxGeometry x="230" y="810" width="157.5" height="80" as="geometry" />
        </mxCell>
      </root>
    </mxGraphModel>
  </diagram>
</mxfile>
